<svg width="30" height="36" viewBox="0 0 30 36" fill="none" xmlns="http://www.w3.org/2000/svg">
<path fill-rule="evenodd" clip-rule="evenodd" d="M2.37301 0H27.627C28.8644 0.00742433 29.8635 1.01261 29.8635 2.25V11.6445C29.8985 21.7983 24.3137 31.1383 15.3525 35.913C15.2439 35.9704 15.1229 36.0003 15 36C14.8775 36 14.7569 35.9696 14.649 35.9115C5.6865 31.1388 0.100721 21.7985 0.13651 11.6445V2.25C0.136487 1.01261 1.13564 0.00742433 2.37301 0ZM13.2 21.9675L23.85 11.9175C24.2396 11.5491 24.4031 11.0008 24.2788 10.4792C24.1545 9.95754 23.7614 9.54185 23.2475 9.38866C22.7337 9.23547 22.1771 9.36807 21.7875 9.7365L12.195 18.777L9.67201 16.227C9.29723 15.8357 8.74053 15.6769 8.21569 15.8116C7.69085 15.9463 7.27948 16.3537 7.13956 16.8771C6.99963 17.4006 7.1529 17.9589 7.54051 18.3375L11.1 21.9315C11.6734 22.5133 12.607 22.5293 13.2 21.9675Z" fill="#4E2D92"/>
</svg>
